<svg width="16" height="12" viewBox="354 20 292 192" xmlns="http://www.w3.org/2000/svg" fill="#FDBE2B">
    <path d="M430.75,170c8.35-.07,16.71-.07,25.06-.07h9.09c5.32,0,10.62,0,15.94,0,17,0,34-.06,51,0,2.81,0,4.66-.64,6.14-3.28,8-14.25,15.91-28.63,24.57-42.49,3.76-6,4.16-10.62-.07-16.37-2.2-3-4.1-4.44-7.84-4.41-23,.14-45.92.07-68.88.07-1.2,0-2.38,0-3.58,0-1.79-.13-2.42-1-1.47-2.65,2.29-4,4.62-8,6.91-12,.93-1.6,2.46-1.45,4-1.45q25.15,0,50.33,0H645.68L631,62.27H580.44a11.25,11.25,0,0,0-1.69-.11q-49.86.21-99.72,0c-3.61,0-5.73,1.15-7.48,4.25-8.8,15.56-17.77,31-26.67,46.47-.59,1-1.68,2-1.29,3.24,1.33,4.12,3.76,7.74,6.23,11.23,1.63,2.31,4.45,1.24,6.74,1.24,22.8.07,45.61,0,68.41,0,6,0,6,0,2.92,5.35-1.34,2.33-2.74,4.62-3.94,7-1.42,2.83-3.46,4-6.75,3.94q-26.15-.13-52.3-.07v0H354.32l14.37,25h60.66A12.25,12.25,0,0,0,430.75,170Z" />
    <path d="M607,102.79H578.12c1.88,3.24,3.8,6.47,5.73,9.69,1.62,2.67,1.37,4.8-.14,7.4q-17.94,30.88-35.64,61.93c-1.88,3.35-4.12,4.4-7.82,4.38-28-.12-113.15-.07-141.18-.07-5.21,0-10.42.06-15.65,0-3.17,0-4.68.52-2.46,4,2.58,4,4.79,8.24,7.17,12.38,3.31,5.78,8.2,8.72,15,8.72,29.82-.06,116.73-.07,146.55,0,7,0,11.91-3,15.33-8.92q22.15-38.49,44.38-77C613,119,613,113,609.29,106.75,608.52,105.43,607.74,104.12,607,102.79Z" />
    <path d="M403.33,129.83h28.94c-1.82-3.15-3.72-6.28-5.66-9.36-2.06-3.26-1.73-5.77.13-9,11.73-20,23.39-40.12,34.78-60.36,2.2-3.9,4.64-5.23,9.1-5.19,32.64.2,112,.11,144.61.09,5.41,0,5.53-.27,2.79-5-2.07-3.62-4.17-7.22-6.17-10.87-3.39-6.22-8.64-9.28-15.66-9.3-29.65,0-106,0-135.67,0-7,0-12.09,3.08-15.64,9.3Q423.1,68.33,401,106.36c-3.81,6.55-3.89,12.82,0,19.37Q402.15,127.77,403.33,129.83Z" />
</svg>
